<svg width="780" height="421" xmlns="http://www.w3.org/2000/svg" xmlns:xlink="http://www.w3.org/1999/xlink"><defs><path id="a" d="M0 549.038h789.905V.015H0z"/><path id="c" d="M.186.111l9.14 41.208L26.336.054"/><path id="e" d="M.186.111l9.14 41.208L26.336.054"/><path id="g" d="M.186.111l9.14 41.208L26.336.054"/><path id="i" d="M.186.111l9.14 41.208L26.336.054"/><path id="k" d="M.186.111l9.14 41.208L26.336.054"/><path id="m" d="M.186.111l9.14 41.208L26.336.054"/><path id="o" d="M.186.111l9.14 41.208L26.336.054"/><path id="q" d="M.186.111l9.14 41.208L26.336.054"/><path id="s" d="M.186.111l9.14 41.208L26.336.054"/><path id="u" d="M.186.111l9.14 41.208L26.336.054"/><path id="w" d="M.186.111l9.14 41.208L26.336.054"/><path id="y" d="M.186.111l9.14 41.208L26.336.054"/><path id="A" d="M.186.111l9.14 41.208L26.336.054"/><path id="C" d="M.186.111l9.14 41.208L26.336.054"/><path id="E" d="M.186.111l9.14 41.208L26.336.054"/><path id="G" d="M.186.111l9.14 41.208L26.336.054"/><path id="I" d="M.186.111l9.14 41.208L26.336.054"/><path id="K" d="M.186.111l9.14 41.208L26.336.054"/><path id="M" d="M.186.111l9.14 41.208L26.336.054"/><path id="O" d="M.186.111l9.14 41.208L26.336.054"/><path id="Q" d="M.186.111l9.14 41.208L26.336.054"/><path id="S" d="M.186.111l9.14 41.208L26.336.054"/><path id="U" d="M.186.111l9.14 41.208L26.336.054"/><path id="W" d="M.186.111l9.14 41.208L26.336.054"/><path id="Y" d="M.186.111l9.14 41.208L26.336.054"/><path id="aa" d="M.186.111l9.14 41.208L26.336.054"/><path id="ac" d="M.186.111l9.14 41.208L26.336.054"/><path id="ae" d="M.186.111l9.14 41.208L26.336.054"/><path id="ag" d="M.186.111l9.14 41.208L26.336.054"/><path id="ai" d="M.186.111l9.14 41.208L26.336.054"/><path id="ak" d="M.186.111l9.14 41.208L26.336.054"/><path id="am" d="M.186.111l9.14 41.208L26.336.054"/><path id="ao" d="M.186.111l9.14 41.208L26.336.054"/><path id="aq" d="M.186.111l9.14 41.208L26.336.054"/><path id="as" d="M.186.111l9.14 41.208L26.336.054"/><path id="au" d="M.186.111l9.14 41.208L26.336.054"/><path id="aw" d="M.186.111l9.14 41.208L26.336.054"/><path id="ay" d="M.186.111l9.14 41.208L26.336.054"/><path id="aA" d="M.186.111l9.14 41.208L26.336.054"/><path id="aC" d="M.186.111l9.14 41.208L26.336.054"/><path id="aE" d="M.186.111l9.14 41.208L26.336.054"/><path id="aG" d="M.186.111l9.14 41.208L26.336.054"/><path id="aI" d="M.186.111l9.14 41.208L26.336.054"/><path id="aK" d="M.186.111l9.14 41.208L26.336.054"/><path id="aM" d="M.186.111l9.14 41.208L26.336.054"/><path id="aO" d="M.186.111l9.14 41.208L26.336.054"/><path id="aQ" d="M.186.111l9.14 41.208L26.336.054"/><path id="aS" d="M.186.111l9.14 41.208L26.336.054"/><path id="aU" d="M.186.111l9.14 41.208L26.336.054"/><path id="aW" d="M.186.111l9.14 41.208L26.336.054"/><path id="aY" d="M.186.111l9.14 41.208L26.336.054"/><path id="ba" d="M.186.111l9.14 41.208L26.336.054"/><path id="bc" d="M.186.111l9.14 41.208L26.336.054"/><path id="be" d="M.186.111l9.14 41.208L26.336.054"/><path id="bg" d="M.186.111l9.14 41.208L26.336.054"/><path id="bi" d="M.186.111l9.14 41.208L26.336.054"/><path id="bk" d="M.186.111l9.14 41.208L26.336.054"/><path id="bm" d="M.186.111l9.14 41.208L26.336.054"/><path id="bo" d="M.186.111l9.14 41.208L26.336.054"/><path id="bq" d="M.186.111l9.14 41.208L26.336.054"/><path id="bs" d="M.186.111l9.14 41.208L26.336.054"/><path id="bu" d="M.186.111l9.14 41.208L26.336.054"/><path id="bw" d="M.186.111l9.14 41.208L26.336.054"/><path id="by" d="M.186.111l9.14 41.208L26.336.054"/><path id="bA" d="M.186.111l9.14 41.208L26.336.054"/><path id="bC" d="M.186.111l9.14 41.208L26.336.054"/><path id="bE" d="M.186.111l9.14 41.208L26.336.054"/><path id="bG" d="M.186.111l9.14 41.208L26.336.054"/><path id="bI" d="M.186.111l9.14 41.208L26.336.054"/><path id="bK" d="M.186.111l9.14 41.208L26.336.054"/><path id="bM" d="M.186.111l9.14 41.208L26.336.054"/><path id="bO" d="M.186.111l9.14 41.208L26.336.054"/><path id="bQ" d="M.186.111l9.14 41.208L26.336.054"/><path id="bS" d="M.186.111l9.14 41.208L26.336.054"/><path id="bU" d="M.186.111l9.14 41.208L26.336.054"/><path id="bW" d="M.186.111l9.14 41.208L26.336.054"/><path id="bY" d="M.186.111l9.14 41.208L26.336.054"/><path id="ca" d="M.186.111l9.14 41.208L26.336.054"/><path id="cc" d="M.186.111l9.14 41.208L26.336.054"/><path id="ce" d="M.186.111l9.14 41.208L26.336.054"/><path id="cg" d="M.186.111l9.14 41.208L26.336.054"/><path id="ci" d="M.186.111l9.14 41.208L26.336.054"/><path id="ck" d="M.186.111l9.14 41.208L26.336.054"/><path id="cm" d="M.186.111l9.14 41.208L26.336.054"/><path id="co" d="M.186.111l9.14 41.208L26.336.054"/><path id="cq" d="M.186.111l9.14 41.208L26.336.054"/><path id="cs" d="M.186.111l9.14 41.208L26.336.054"/><path id="cu" d="M.186.111l9.14 41.208L26.336.054"/><path id="cw" d="M.186.111l9.14 41.208L26.336.054"/><path id="cy" d="M.186.111l9.14 41.208L26.336.054"/><path id="cA" d="M.186.111l9.14 41.208L26.336.054"/><path id="cC" d="M.186.111l9.14 41.208L26.336.054"/><path id="cE" d="M.186.111l9.14 41.208L26.336.054"/><path id="cG" d="M.186.111l9.14 41.208L26.336.054"/><path id="cI" d="M.186.111l9.14 41.208L26.336.054"/><path id="cK" d="M.186.111l9.14 41.208L26.336.054"/><path id="cM" d="M.186.111l9.14 41.208L26.336.054"/><path id="cO" d="M.186.111l9.14 41.208L26.336.054"/><path id="cQ" d="M.186.111l9.14 41.208L26.336.054"/><path id="cS" d="M.186.111l9.14 41.208L26.336.054"/><path id="cU" d="M.186.111l9.14 41.208L26.336.054"/><path id="cW" d="M.186.111l9.14 41.208L26.336.054"/><path id="cY" d="M.186.111l9.14 41.208L26.336.054"/><path id="da" d="M.186.111l9.14 41.208L26.336.054"/><path id="dc" d="M.186.111l9.14 41.208L26.336.054"/><path id="de" d="M.186.111l9.14 41.208L26.336.054"/><path id="dg" d="M.186.111l9.14 41.208L26.336.054"/><path id="di" d="M.186.111l9.14 41.208L26.336.054"/><path id="dk" d="M.186.111l9.14 41.208L26.336.054"/><path id="dm" d="M.186.111l9.14 41.208L26.336.054"/><path id="do" d="M.186.111l9.14 41.208L26.336.054"/><path id="dq" d="M.186.111l9.14 41.208L26.336.054"/><path id="ds" d="M.186.111l9.14 41.208L26.336.054"/><path id="du" d="M.186.111l9.14 41.208L26.336.054"/><path id="dw" d="M.186.111l9.14 41.208L26.336.054"/><path id="dy" d="M.186.111l9.14 41.208L26.336.054"/><path id="dA" d="M.186.111l9.14 41.208L26.336.054"/><path id="dC" d="M.186.111l9.14 41.208L26.336.054"/></defs><g fill="none" fill-rule="evenodd"><g transform="translate(-10 -96.038)"><path d="M325.357 133.94c6.09-4.463.008-11.798-.826-17.26-1.667-10.924 6.367-7.707 13.218-8.62 6.318-.84 9.486-12.658 16.381-9.34 6.794 3.27 3.38 9.206 12.96 8.12 3.27-.372 6.886-2.232 9.887.211 5.425 4.418-.243 9.465 1.25 12.865" stroke="#0C1931" stroke-width="3"/><path d="M789.728 469.44h-69.556a13.814 13.814 0 0 1-.469 2.374h69.556a13.83 13.83 0 0 1 .469-2.374M151.27 470.579a3.994 3.994 0 0 1 .293-1.876h-37.794c1.118.732 2.008 1.53 2.637 2.374h34.935a5.3 5.3 0 0 1-.072-.498M297.226 468.703c.168.608.272 1.235.306 1.876.009.167.01.333.006.499h413.51c.028-.798.105-1.593.241-2.375H297.226zM26.885 469.44c.33.787.65 1.578.957 2.374h24.563c.064-.815.176-1.608.336-2.374H26.885z" fill="#B4C7CD"/><path d="M274.369 332.75H18.959c-4.398 0-7.964-3.493-7.964-7.8V111.844c0-4.307 3.566-7.8 7.964-7.8h255.41c4.398 0 7.964 3.493 7.964 7.8V324.95c0 4.308-3.566 7.8-7.964 7.8" fill="#A6B4B9"/><path d="M261.93 319.651H31.398c-2.686 0-4.863-2.132-4.863-4.763V121.906c0-2.63 2.177-4.762 4.863-4.762H261.93c2.686 0 4.863 2.132 4.863 4.762v192.982c0 2.63-2.177 4.763-4.863 4.763" fill="#FFF"/><path d="M158.253 177.33a37.557 37.557 0 0 0-.975 1.54c-.123.208-.238.418-.352.63a5.328 5.328 0 0 1-.086.432l-.006.158c.118.156.266.39.44.733.393.389.792.77 1.204 1.144.157.106.314.213.474.315 1.373.875 2.827 1.584 4.304 2.269.172.067.345.133.519.197.817.303 1.643.585 2.474.851 3.177 1.02 6.54 1.277 9.822 1.826 3.915.654 7.928 1.833 11.235 4.043a24.566 24.566 0 0 1 8.83 10.497c1.668 3.745 2.799 7.618 4.244 11.438 1.157 1.813.304.8.023.06l-.023-.06-.136-.214c.175.271.3.653.44.935.388.781.815 1.551 1.26 2.304.357.604.733 1.196 1.127 1.777.49.723 2.381 2.673.377.6 1.17 1.21 2.221 2.481 3.499 3.595.206.18.419.353.627.53.466.323.933.644 1.418.943.831.514 1.69.988 2.57 1.419.09.045.183.086.276.13 1.405.365 2.761.977 4.192 1.302.81.183 4.023.522.703.23.764.067 1.52.158 2.287.2 1.627.087 3.259.058 4.882-.08 2.226-.58.863-.072.08-.005l-.08.006-.299.079c.335-.09.74-.113 1.076-.17a37.492 37.492 0 0 0 2.708-.567c1.673-.417 3.295-.975 4.912-1.56l.04-.014c.282-.126.565-.25.846-.381.857-.4 1.703-.824 2.536-1.27a52.755 52.755 0 0 0 5.735-3.576c.413-.522 1.205-.933 1.716-1.36a64.441 64.441 0 0 0 3.993-3.644 70.272 70.272 0 0 0 3.873-4.17c.555-.646 1.074-1.323 1.631-1.968-1.886 2.185.071-.12.455-.618a142.925 142.925 0 0 0 9.326-13.682l.022-70.13c.022-2.11-1.72-3.833-3.874-3.833H174.67c-1.16 0-.738 12.768-.735 14.458.018 9.82 1.382 21.583-1.138 31.144-1.682 6.381-6.631 7.733-12.065 10.37-.714.346-1.56.728-2.48 1.147M29.735 163.842c8.337-2.905 19.901-10.284 28.425-4.342 3.861 2.692 4.563 5.786 6.789 9.81 3.166 5.724 6.888 11.128 9.986 16.88 2.299 4.267 4.218 8.962 9.853 8.863 10.436-.184 20.038-6.58 28.29 1.086 5.994 5.57 11.058 11.531 15.135 18.634 4.681 8.156 10.633 15.15 15.582 23.062 1.465 2.341 4.274 6.803 3.824 9.878-.89 6.076-11.424 9.953-16.192 12.267-5.434 2.637-10.384 3.989-12.066 10.37-2.52 9.56-1.156 21.322-1.138 31.144.003 1.69.426 14.458-.734 14.458H33.562c-2.155 0-3.896-1.723-3.875-3.834l.048-148.276z" fill="#DFECF3"/><mask id="b" fill="#fff"><use xlink:href="#a"/></mask><path fill="#FFF" mask="url(#b)" d="M38.297 318.828h1.138V117.095h-1.138zM69.06 318.828h1.138V117.095h-1.137zM99.824 318.828h1.138V117.095h-1.138zM130.588 318.828h1.138V117.095h-1.138zM161.352 318.828h1.137V117.095h-1.137zM192.115 318.828h1.138V117.095h-1.138zM222.879 318.828h1.137V117.095h-1.137zM253.642 318.828h1.138V117.095h-1.138z"/><path fill="#FFF" mask="url(#b)" d="M30.17 132.038v-1.115h232.936v1.114zM30.17 160.904v-1.114l232.937-.001v1.114zM30.172 189.77v-1.113l232.936-.001v1.114zM30.173 218.638v-1.115h232.936v1.114zM30.174 247.504v-1.114l232.936-.001v1.114zM30.175 276.37v-1.114H263.11v1.114zM30.176 305.237v-1.114l232.936-.001v1.114z"/><path d="M52.565 215.924c10.99 4.434 18.626 16.977 26.999 24.691 2.614 2.409 4.714 4.257 8.505 3.598 3.56-.619 8.315-4.063 11.603-5.487 6.103-2.644 11.59-5.944 17.358-9.212 4.57-2.59 17.834-6.54 17.078-13.742-.555-5.287-12.162-9.74-11.074-14.978.394-1.899 3.423-2.765 4.82-3.722 5.478-3.756 10.968-7.552 16.465-11.274 10.509-7.113 20.857-13.391 30.75-21.398 9.113-7.375 15.087-13.597 10.772-25.605" stroke="#00B7E4" stroke-width="20" mask="url(#b)"/><path d="M154.45 179.247c5.607 9.409 18.545 17.425 19.824 28.576 1.48 12.907-13.76 19.508-16.45 31.225-3.51 15.29 19.966 23.148 29.675 29.725 5.8 3.93 18.331 10.742 19.833 17.928 1.817 8.69-5.738 17.013-6.07 24.152M66.333 226.711c-6.11 4.918-14.016 8.787-19.426 14.458-4.874 5.109-2.906 8.241-.055 14.506 3.295 7.242 6.768 14.264 10.652 21.206 1.409 2.518 2.68 3.922 2.792 6.734.319 7.988-6.188 16.476-7.18 24.541" stroke="#00B7E4" stroke-width="20" mask="url(#b)"/><path d="M120.157 172.393c-7.254-4.045-16.781-5.685-25.373-6.828-.565-2.851.006-10.262.296-14.026.222-2.873.413-5.354.413-7.213 0-4.348.648-17.61.96-22.917h-.97a3.776 3.776 0 0 1-.947.666l-.342-.666h-5.398l-.023.384a858.566 858.566 0 0 0-.39 7.575c-.16 3.375-.534 11.589-.534 14.958 0 1.577-.19 4.04-.391 6.65-.305 3.945-.65 8.417-.537 12.06.076 2.489.28 9.099 5.448 9.766 8.834 1.14 17.857 2.668 24.005 6.097 6.067 3.384 14.312 12.791 16.694 15.594l5.875-4.79c-3.32-3.907-11.797-13.412-18.786-17.31" fill="#00B7E4" mask="url(#b)"/><path d="M29.985 158.751c9.105 2.16 21.607 4.701 29.74 9.96 11.705 7.565 15.497 22.64 23.13 33.637 7.733 11.14 17.996 20.476 28.357 29.496 14.457 12.587 21.258 27.551 21.258 47.176 0 11.53-2.214 23.368-2.252 35.07" stroke="gray" stroke-width="6" mask="url(#b)"/><path d="M31.087 202.98c5.13-1.503 10.097-4.291 15.046-6.654 12.297-5.873 25.358-10.153 37.712-16.02 12.529-5.95 26.65-9.816 38.566-16.714 2.66-1.54 3.826-2.456 5.726-4.83 6.29-7.856 7.454-18.318 17.226-22.94 8.28-3.915 17.782-6.112 26.153-9.709 3.882-1.668 9.262-3.153 12.673-5.118M166.566 141.491c14.514 8.298 17.657 23.893 37.897 18.874 14.813-3.675 29.223-7.047 43.613-11.825 3.931-1.306 8.452-1.259 12.113-2.734M33.29 219.7c10.34-3.119 20.952-8.686 31.003-13.17 10.57-4.717 23.309-8.474 33.073-14.484 6.631-4.081 3.163-11.017 3.113-18.193M130.768 260.692c5.156-4.016 8.245-2.412 12.64 1.186 8.693 7.114 19.323 11.629 27.834 18.77 7.5 6.295-.165 10.708-5.506 17.757-3.472 4.583-7.496 9.567-9.634 14.606" stroke="gray" stroke-width="6" mask="url(#b)"/><path d="M198.585 186.497h-.007a11.983 11.983 0 0 0 1.056-6.16c-.546-5.94-5.514-10.684-11.59-11.074-7.276-.467-13.325 5.174-13.325 12.2 0 1.795.398 3.498 1.108 5.034h-.006l.046.086c.187.398.395.785.623 1.157l10.536 12.837a.686.686 0 0 0 1.068-.015l9.033-11.686a12.167 12.167 0 0 0 1.431-2.336l.027-.043z" fill="#000" mask="url(#b)"/><path d="M190.14 179.844c0 1.688-1.397 3.057-3.121 3.057-1.723 0-3.12-1.369-3.12-3.057s1.397-3.057 3.12-3.057c1.724 0 3.121 1.369 3.121 3.057" fill="#FFF" mask="url(#b)"/><path d="M81.825 264.889h-.006a11.99 11.99 0 0 0 1.056-6.16c-.547-5.94-5.515-10.684-11.591-11.074-7.276-.466-13.325 5.175-13.325 12.2 0 1.795.398 3.498 1.108 5.034h-.006l.046.086c.188.398.395.785.623 1.158l10.536 12.836a.686.686 0 0 0 1.068-.015l9.033-11.686a12.167 12.167 0 0 0 1.431-2.335l.027-.044z" fill="#000" mask="url(#b)"/><path d="M73.38 258.236c0 1.688-1.397 3.057-3.12 3.057-1.725 0-3.122-1.369-3.122-3.057s1.397-3.056 3.121-3.056 3.121 1.368 3.121 3.056" fill="#FFF" mask="url(#b)"/><path d="M125.151 154.133h-.006a11.99 11.99 0 0 0 1.056-6.16c-.547-5.94-5.515-10.684-11.591-11.074-7.276-.466-13.325 5.175-13.325 12.2 0 1.795.399 3.498 1.108 5.034h-.006l.046.086c.188.398.395.785.623 1.158l10.536 12.836a.686.686 0 0 0 1.068-.015l9.033-11.686a12.167 12.167 0 0 0 1.431-2.335l.027-.044z" fill="#000" mask="url(#b)"/><path d="M116.706 147.48c0 1.688-1.397 3.057-3.12 3.057-1.725 0-3.122-1.369-3.122-3.057s1.397-3.056 3.121-3.056 3.121 1.368 3.121 3.056" fill="#FFF" mask="url(#b)"/><path d="M216.943 259.854h-.006a11.986 11.986 0 0 0 1.056-6.16c-.547-5.94-5.515-10.683-11.59-11.073-7.276-.467-13.326 5.174-13.326 12.199 0 1.795.399 3.499 1.108 5.034h-.006l.046.087c.188.397.395.784.623 1.157l10.536 12.837a.686.686 0 0 0 1.068-.015l9.033-11.686a12.148 12.148 0 0 0 1.431-2.336l.027-.044z" fill="#000" mask="url(#b)"/><path d="M208.499 253.202c0 1.688-1.398 3.056-3.121 3.056-1.724 0-3.121-1.368-3.121-3.056s1.397-3.057 3.12-3.057c1.724 0 3.122 1.369 3.122 3.057" fill="#FFF" mask="url(#b)"/><path fill="#D2E3EB" mask="url(#b)" d="M395.02 206.275h320.172V114.57H395.02z"/><path fill="#FFF" mask="url(#b)" d="M398.692 198.644h320.172v-91.702H398.692z"/><path fill="#00B7E4" mask="url(#b)" d="M491.546 161.713h88.778v-13.377h-88.778z"/><path d="M576.772 140.628c-2.657-3.939-6.677-10.04-9.427-14.23-1.314-2 .154-4.629 2.582-4.629h18.323c2.4 0 3.872 2.579 2.613 4.581l-8.918 14.194c-1.176 1.872-3.937 1.917-5.173.084M581.33 167.98c2.798 4.128 7.532 11.319 10.429 15.735 1.082 1.65-.13 3.816-2.132 3.816h-20.27c-1.98 0-3.193-2.127-2.156-3.778l9.865-15.7c.969-1.542 3.241-1.582 4.263-.074" fill="#FFCF0B" mask="url(#b)"/><path d="M527.7 155.024h1.518" stroke="#00B7E4" stroke-width="10" mask="url(#b)"/><path d="M532.22 155.024h88.583" stroke="#00B7E4" stroke-width="10" stroke-dasharray="7.918,7.918" mask="url(#b)"/><path d="M622.304 155.024h1.517" stroke="#00B7E4" stroke-width="10" mask="url(#b)"/><path d="M696.087 155.074c0 14.802-12.252 26.802-27.366 26.802-15.114 0-27.366-12-27.366-26.802 0-14.803 12.252-26.802 27.366-26.802 15.114 0 27.366 11.999 27.366 26.802" fill="#A6B4B9" mask="url(#b)"/><path d="M668.646 171.167c.984 0 1.755-.755 1.755-1.72v-3.558l.261-.096c.778-.286 1.41-.641 1.988-1.119a6.062 6.062 0 0 0 2.212-4.666l.401-.02-.4.008c-.046-1.921-.859-3.574-2.29-4.655l-4.951-3.963c-.62-.48-.898-1.07-.9-1.908-.032-.749.259-1.373.889-1.893.49-.416 1.003-.604 1.66-.604l.364.017c.02.006.042.01.064.015.824.13 1.387.524 1.774 1.242.235.384.624.671 1.082.79.455.116.924.052 1.32-.18.805-.474 1.093-1.534.641-2.364-.718-1.23-1.833-2.135-3.219-2.607l-.27-.092v-3.18c0-.965-.77-1.72-1.755-1.72-1.034 0-1.756.707-1.756 1.72v3.175l-.272.09a5.522 5.522 0 0 0-1.88 1.06 5.672 5.672 0 0 0-2.152 4.597c0 1.778.787 3.383 2.217 4.527l4.907 3.96c.599.464.98 1.201 1.014 1.967 0 .858-.315 1.527-.965 2.063a2.68 2.68 0 0 1-1.779.642l-.363-.017a.691.691 0 0 0-.068-.016c-.843-.131-1.442-.547-1.88-1.307-.324-.528-.926-.826-1.547-.826-.298 0-.6.07-.879.214-.38.225-.668.597-.795 1.037-.13.457-.073.92.165 1.307a6.12 6.12 0 0 0 3.375 2.707l.276.09v3.563c0 1.013.722 1.72 1.756 1.72" fill="#0C1931" mask="url(#b)"/><path d="M689.359 154.828c0 11.19-9.263 20.261-20.688 20.261-11.426 0-20.688-9.071-20.688-20.261s9.262-20.262 20.688-20.262c4.585 0 8.823 1.462 12.253 3.935M688.504 149.044c.214.706.39 1.429.526 2.165M684.4 141.666a20.34 20.34 0 0 1 1.94 2.617" stroke="#0C1931" stroke-width="4" stroke-linecap="round" stroke-linejoin="round" mask="url(#b)"/><path fill="#D2E3EB" mask="url(#b)" d="M393.185 327.818h320.172v-91.703H393.185z"/><path fill="#FFF" mask="url(#b)" d="M396.856 320.189h320.172v-91.704H396.856z"/><path fill="#00B7E4" mask="url(#b)" d="M489.711 283.256h55.732V269.88h-55.732z"/><path d="M541.89 262.172c-2.656-3.939-6.676-10.04-9.426-14.23-1.314-2 .154-4.629 2.582-4.629h18.323c2.4 0 3.872 2.578 2.614 4.581l-8.92 14.194c-1.175 1.871-3.936 1.917-5.172.084M546.448 289.523c2.799 4.129 7.532 11.32 10.43 15.735 1.082 1.65-.13 3.817-2.132 3.817h-20.27c-1.98 0-3.194-2.127-2.156-3.778l9.865-15.7c.969-1.542 3.241-1.582 4.263-.074" fill="#FFCF0B" mask="url(#b)"/><path d="M525.865 276.568h1.517" stroke="#00B7E4" stroke-width="10" mask="url(#b)"/><path d="M530.385 276.568h88.582" stroke="#00B7E4" stroke-width="10" stroke-dasharray="7.918,7.918" mask="url(#b)"/><path d="M620.468 276.568h1.517" stroke="#00B7E4" stroke-width="10" mask="url(#b)"/><path d="M694.252 276.618c0 14.802-12.253 26.801-27.367 26.801s-27.366-12-27.366-26.801c0-14.803 12.252-26.802 27.366-26.802 15.114 0 27.367 12 27.367 26.802" fill="#A6B4B9" mask="url(#b)"/><path d="M666.81 292.71c.984 0 1.756-.755 1.756-1.719v-3.558l.26-.096c.779-.286 1.41-.641 1.989-1.119a6.062 6.062 0 0 0 2.211-4.666l.402-.02-.402.008c-.045-1.921-.858-3.575-2.289-4.655l-4.95-3.963c-.62-.48-.9-1.07-.9-1.908-.033-.749.258-1.373.888-1.893.49-.416 1.003-.604 1.661-.604l.363.017a.552.552 0 0 0 .064.015c.824.129 1.387.523 1.774 1.242.235.384.624.67 1.082.789.455.117.924.054 1.319-.179.806-.474 1.094-1.534.642-2.364-.718-1.23-1.833-2.135-3.219-2.607l-.27-.092v-3.18c0-.965-.77-1.72-1.755-1.72-1.034 0-1.756.707-1.756 1.72v3.175l-.272.09a5.515 5.515 0 0 0-1.88 1.06 5.673 5.673 0 0 0-2.152 4.597c0 1.778.788 3.383 2.217 4.527l4.907 3.96c.6.464.98 1.201 1.014 1.968 0 .857-.315 1.526-.965 2.062a2.682 2.682 0 0 1-1.779.642l-.363-.017a.574.574 0 0 0-.067-.016c-.844-.132-1.442-.547-1.882-1.308-.323-.527-.925-.825-1.545-.825-.299 0-.602.07-.88.214-.38.225-.668.597-.794 1.037-.132.457-.073.92.164 1.307a6.122 6.122 0 0 0 3.375 2.707l.276.09v3.563c0 1.013.722 1.72 1.756 1.72" fill="#0C1931" mask="url(#b)"/><path d="M687.523 276.372c0 11.19-9.262 20.261-20.688 20.261-11.426 0-20.688-9.071-20.688-20.261s9.262-20.262 20.688-20.262c4.586 0 8.823 1.462 12.253 3.935M686.668 270.588c.214.706.39 1.429.526 2.165M682.564 263.21a20.344 20.344 0 0 1 1.94 2.617" stroke="#0C1931" stroke-width="4" stroke-linecap="round" stroke-linejoin="round" mask="url(#b)"/><path fill="#D2E3EB" mask="url(#b)" d="M395.02 447.205h320.172v-91.703H395.02z"/><path fill="#FFF" mask="url(#b)" d="M398.692 439.575h320.172v-91.703H398.692z"/><path fill="#00B7E4" mask="url(#b)" d="M491.547 402.643h118.151v-13.377H491.547z"/><path d="M606.145 381.558c-2.656-3.938-6.676-10.039-9.426-14.23-1.314-2 .153-4.628 2.582-4.628h18.322c2.401 0 3.873 2.578 2.614 4.58l-8.918 14.194c-1.176 1.872-3.937 1.917-5.174.084M610.703 408.91c2.798 4.128 7.532 11.32 10.43 15.735 1.082 1.65-.13 3.816-2.132 3.816h-20.27c-1.98 0-3.194-2.126-2.156-3.778l9.865-15.7c.968-1.541 3.24-1.582 4.263-.073" fill="#FFCF0B" mask="url(#b)"/><path d="M527.7 395.955h1.518" stroke="#00B7E4" stroke-width="10" mask="url(#b)"/><path d="M532.22 395.955h88.583" stroke="#00B7E4" stroke-width="10" stroke-dasharray="7.918,7.918" mask="url(#b)"/><path d="M622.304 395.955h1.517" stroke="#00B7E4" stroke-width="10" mask="url(#b)"/><path d="M696.087 396.004c0 14.802-12.252 26.802-27.366 26.802-15.114 0-27.366-12-27.366-26.802 0-14.803 12.252-26.802 27.366-26.802 15.114 0 27.366 12 27.366 26.802" fill="#A6B4B9" mask="url(#b)"/><path d="M668.646 412.097c.984 0 1.755-.755 1.755-1.72v-3.558l.261-.096c.778-.286 1.41-.64 1.988-1.119a6.062 6.062 0 0 0 2.212-4.666l.401-.02-.4.009c-.046-1.922-.859-3.575-2.29-4.656l-4.951-3.963c-.62-.48-.898-1.07-.9-1.908-.032-.749.259-1.373.889-1.893.49-.416 1.003-.604 1.66-.604l.364.017c.02.007.042.011.064.015.824.13 1.387.524 1.774 1.242.235.384.624.671 1.082.79.455.116.924.053 1.32-.18.805-.474 1.093-1.534.641-2.364-.718-1.23-1.833-2.135-3.219-2.607l-.27-.092v-3.18c0-.964-.77-1.72-1.755-1.72-1.034 0-1.756.708-1.756 1.72v3.175l-.272.09a5.515 5.515 0 0 0-1.88 1.06 5.672 5.672 0 0 0-2.152 4.597c0 1.779.787 3.383 2.217 4.528l4.907 3.96c.599.463.98 1.2 1.014 1.967 0 .858-.315 1.526-.965 2.062a2.68 2.68 0 0 1-1.779.642l-.363-.017a.6.6 0 0 0-.068-.016c-.843-.131-1.442-.546-1.88-1.307-.324-.528-.926-.825-1.547-.825a1.9 1.9 0 0 0-.879.214c-.38.224-.668.596-.795 1.037-.13.456-.073.92.165 1.307a6.123 6.123 0 0 0 3.375 2.707l.276.089v3.563c0 1.013.722 1.72 1.756 1.72" fill="#0C1931" mask="url(#b)"/><path d="M689.359 395.758c0 11.19-9.263 20.261-20.688 20.261-11.426 0-20.688-9.071-20.688-20.261s9.262-20.261 20.688-20.261c4.585 0 8.823 1.461 12.253 3.934M688.504 389.974c.214.707.39 1.43.526 2.165M684.4 382.597a20.366 20.366 0 0 1 1.94 2.616" stroke="#0C1931" stroke-width="4" stroke-linecap="round" stroke-linejoin="round" mask="url(#b)"/><path d="M461.704 270.676c0-.478.395-.865.884-.865h6.188c.374 0 .706.23.833.573l2.276 6.212c.207.564-.22 1.158-.832 1.158h-8.465a.875.875 0 0 1-.884-.865v-6.213zm-44.184 19.095c.882-2.716 3.477-4.684 6.542-4.684s5.66 1.968 6.541 4.684h27.679c.88-2.716 3.476-4.684 6.541-4.684 3.065 0 5.66 1.968 6.541 4.684h5.625a.72.72 0 0 0 .728-.713v-1.985c0-.31-.256-.56-.572-.56h-1.324c.014-.105.024-.21.024-.317v-7.844c0-.27-.047-.539-.14-.793l-3.449-9.446a2.401 2.401 0 0 0-2.263-1.561h-12.125c-1.327 0-2.403 1.054-2.403 2.353v17.29c0 .108.01.213.024.317h-2.104v-26.21c0-.842-.698-1.526-1.56-1.526h-35.81c-.862 0-1.56.684-1.56 1.527v26.21h-1.675a.566.566 0 0 0-.572.56v2.036a.67.67 0 0 0 .676.662h4.636z" fill="#000" mask="url(#b)"/><path d="M423.904 293.648c-.981 0-1.776-.78-1.776-1.74s.795-1.739 1.776-1.739c.98 0 1.776.779 1.776 1.74 0 .96-.796 1.739-1.776 1.739m0-6.354c-2.598 0-4.712 2.07-4.712 4.614s2.114 4.614 4.712 4.614 4.71-2.07 4.71-4.614-2.112-4.614-4.71-4.614M464.945 293.648c-.98 0-1.775-.78-1.775-1.74s.795-1.739 1.775-1.739c.981 0 1.777.779 1.777 1.74 0 .96-.796 1.739-1.777 1.739m0-6.354c-2.597 0-4.71 2.07-4.71 4.614s2.113 4.614 4.71 4.614c2.598 0 4.712-2.07 4.712-4.614s-2.114-4.614-4.712-4.614M429.868 406.657c-.951 0-1.723-.756-1.723-1.688 0-.933.772-1.688 1.723-1.688.952 0 1.724.755 1.724 1.688 0 .932-.772 1.688-1.724 1.688m0-6.167c-2.52 0-4.572 2.01-4.572 4.478 0 2.47 2.051 4.48 4.572 4.48 2.522 0 4.573-2.01 4.573-4.48 0-2.469-2.051-4.478-4.573-4.478M455.449 406.657c-.952 0-1.724-.756-1.724-1.688 0-.933.772-1.688 1.724-1.688s1.723.755 1.723 1.688c0 .932-.771 1.688-1.723 1.688m0-6.167c-2.522 0-4.573 2.01-4.573 4.478 0 2.47 2.051 4.48 4.573 4.48 2.52 0 4.572-2.01 4.572-4.48 0-2.469-2.051-4.478-4.572-4.478" fill="#000" mask="url(#b)"/><path d="M461.02 388.439h-6.791a.849.849 0 0 1-.858-.84v-9.52c0-.464.384-.84.858-.84h4.582c.361 0 .685.222.807.556l2.21 9.52c.2.547-.214 1.124-.807 1.124m8.763 11.293h-.929c.014-.101.024-.204.024-.308v-8.66a2.24 2.24 0 0 0-.137-.77l-3.086-1.334-3.01-12.92c-.157-.886-.942-1.533-1.861-1.533h-38.416c-.923 0-1.671.732-1.671 1.636v23.889h-.558a.55.55 0 0 0-.554.543v1.977a.65.65 0 0 0 .656.643h3.43c.856-2.637 3.375-4.547 6.35-4.547 2.975 0 5.494 1.91 6.349 4.547h12.61c.855-2.637 3.374-4.547 6.349-4.547s5.493 1.91 6.349 4.547h7.954a.7.7 0 0 0 .706-.692v-1.928a.55.55 0 0 0-.555-.543" fill="#000" mask="url(#b)"/><path d="M153.595 496.905h117.968V402.55H153.595v94.354zm-2.347 2.299H273.91v-98.951H151.248v98.95z" fill="#FFF" mask="url(#b)"/><path fill="#FFF" mask="url(#b)" d="M143.844 402.581H279.08v-5.85H143.844zM164.069 442.27h97.501v-26.822h-97.501v26.823zm-2.348 2.3h102.196v-31.42H161.72v31.42zM163.829 482.717h97.501v-26.822H163.83v26.822zm-2.347 2.299h102.196v-31.42H161.482v31.42z"/><path fill="#FFF" mask="url(#b)" d="M197.419 473.844h23.187v-3.256H197.42zM226.335 373.735H192.166c-1.062 0-1.934-.854-1.934-1.895v-.6c0-1.041.872-1.895 1.934-1.895h18.065c.082.109 18.617 0 18.617 0 1.062 0 1.935.854 1.935 1.894v.601c0 1.041-.873 1.895-1.935 1.895h-2.513zM228.45 378.017c1.56 5.332-.475 11.076-5.259 14.85h-25.526c-6.094-4.794-7.548-13.187-3.27-19.132h31.94a14.056 14.056 0 0 1 2.115 4.282"/><path d="M211.274 376.245c6.36 0 12.317 1.026 17.434 2.814a12.893 12.893 0 0 0-.258-1.042 14.06 14.06 0 0 0-2.115-4.282h-31.94a12.974 12.974 0 0 0-2.349 5.995c5.495-2.2 12.11-3.485 19.228-3.485" fill="#DFECF3" mask="url(#b)"/><path fill="#FFF" mask="url(#b)" d="M197.419 433.745h23.187v-3.256H197.42zM202.844 361.928c.161-.172.403-.448.695-.798.073.064.148.127.223.19-.37.207-.686.414-.918.608m22.974-1.617c1.988-1.999 12.111-14.025 7.212-14.987-4.571-.897-11.147 7.223-12.633 10.487.954-1.975 3.958-15.174.327-15.518-2.026-.192-3.938 5.34-4.222 6.313-.971 3.317-.273 6.437-.258 9.766-.937-1.907-5.318-13.804-8.121-12.442-2.791 1.355 4.599 15.703 6.349 18.277-1.392-.761-8.018-3.185-9.16-3.35 2.28-3.11 4.836-7.38 2.515-7.861-3.158-.654-7.703 5.268-8.73 7.65.66-1.442 2.736-11.07.226-11.32-1.4-.14-2.721 3.896-2.918 4.605-.67 2.42-.188 4.695-.177 7.123-.648-1.39-3.676-10.069-5.613-9.076-1.928.99 3.178 11.455 4.388 13.332-2.776-1.602-5.828-2.86-9.121-2.524 1.465 2.31 7.263 6.178 9.507 6.045h18.098c.587.152 1.112.227 1.543.202h11.99c1.703 0 6.583-5.16 7.836-6.498 5.744-6.131-6.14-2.516-9.038-.224"/><path d="M64.677 397.84s-11.926 35.04 13.302 46.271c0 0 15.596-27.852-13.302-46.271" fill="#FFCF0B" mask="url(#b)"/><path d="M35.175 422.798s10.881 26.81 31.722 21.084c0 0-4.996-24.325-31.722-21.084M104.094 398.174s11.926 35.04-13.302 46.271c0 0-15.596-27.853 13.302-46.271" fill="#FFCF0B" mask="url(#b)"/><path d="M133.596 423.132s-10.881 26.809-31.722 21.084c0 0 4.996-24.325 31.722-21.084M126.947 401.508s-.385 19.24-14.772 20.445c0 0-2.697-16.339 14.772-20.445M42.263 400.788s.385 19.242 14.772 20.446c0 0 2.696-16.34-14.772-20.446M82.837 383.322s-13.047 15.13.975 25.564c0 0 14.203-10.85-.975-25.564" fill="#FFCF0B" mask="url(#b)"/><path d="M256.559 286.231c-7.524 17.257 2.713 46.89 2.713 46.89l9.205 63.993-1.933 99.799h26.038l8.511-94.448-3.391-82.924 5.976 1.083 29.548 82.489-20.536 90.166h26.579l23.11-80.472a76.886 76.886 0 0 0 1.291-31.575l-14.098-84.13-93.013-10.87z" fill="#00B7E4" mask="url(#b)"/><path d="M337.11 172.8l7.222-16.942c14.262 2.89 17.79-7.166 17.79-7.166l12.552-24.162-46.86 5.386-20.116 42.811 29.411.072z" fill="#A6B4B9" mask="url(#b)"/><path d="M344.883 169.538l9.87 1.141c3.174 0 18.746 13.875 18.982 14.204l-10.025-21.086c-.68-.634-3.247-1.223-5.524-5.455-1.151-2.146.148-4.375 1.923-7 1.22-1.316 5.307-9.19 5.307-9.19l2.024.844-.935 5.831 3.162 11.54c3.64 4.115 47.528 53.813 51.77 63.046 4.426 9.632 5.901 20.71-4.696 28.762-6.312 4.796-19.4 4.47-28.479-3.631l-20.082-15.518-.346-.944-46.727-62.97 23.776.426z" fill="#A6B4B9" mask="url(#b)"/><path d="M406.452 229.308s-15.098-20.473-14.865-20.487" stroke="#0C1931" stroke-width="6" stroke-linecap="round" stroke-linejoin="round" mask="url(#b)"/><path d="M214.87 192.07l71.254-22.359.452.308c-7.765 2.832-13.051 9.744-15.062 18.596l-1.742 9.965-38.264 8.794 14.158 38.632c3.113.226 13.406-.068 15.85-.145l-2.867 16.414-7.224-1.796 1.106-3.796-14.357-2.904-30.135-41.816c-5.153-7.19-1.712-17.212 6.83-19.893" fill="#A6B4B9" mask="url(#b)"/><path fill="#FFCF0B" mask="url(#b)" d="M351.606 171.397l-1.968-8.67-41.36-.591-4.254 8.298z"/><path d="M238.007 184.882s-7.838 7.958-4.903 22.04l11.16-2.565s-6.257-8.397-6.257-19.475" fill="#0C1931" mask="url(#b)"/><path d="M237.838 184.672l41.979-14.96 6.388.307c-7.765 2.832-5.631 9.744-7.642 18.596l-4.244 18.415-25.001 5.568c-11.193-9.94-11.015-20.03-11.48-27.926" fill="#FFCF0B" mask="url(#b)"/><path d="M409.879 222.731c-2.294-1.472-4.879-2.25-7.616-2.345-1.465-.051-1.463 2.178 0 2.228 2.356.082 4.497.777 6.467 2.042 1.228.788 2.37-1.14 1.149-1.925M324.678 131.367c.316-3.419 3.148-5.32 3.686-8.331.389-2.177-1.342-5.51-1.066-8.277.364-3.645 1.831-6.952 5.601-8.178 2.758-.895 6.05.328 8.851-.893 2.418-1.054 3.908-3.53 6.422-4.538 6.219-2.495 8.5 3.504 12.901 5.59 4.82 2.285 10.13-3.3 14.101 2.658 1.488 2.232 1.385 4.217 3.41 6.505l.188.214c1.118.516 2.133 1.17 2.66 2.34.266.592.31 1.427.173 2.226.036.12.076.23.11.356 1.426 5.341-3.355 8.599-8.31 7.014-1.144-.366-1.805-1.18-3.172-.938-.929.163-1.34 1.76-2.263 1.957-2.512.538-3.983-2.057-6.572-.175-2.129 1.546-1.466 2.977-4.399 3.719-.946.24-2.726.182-3.956.576l-2.464 5.015h-3.935s1.291-4.558-1.475-5.298c-5.41-1.444-5.902 2.89-5.41 8.67 0 0-4.917 2.89-11.802-.964l.01-.016c-.867-.306-1.751-1.245-2.066-1.924-.236-.507-.287-.953-.212-1.358-1.043-1.639-1.18-4.112-1.01-5.95M393.21 208.835s2.32 24.688-12.382 33.964l-8.024-6.712s13.727-6.177 20.405-27.252" fill="#0C1931" mask="url(#b)"/><path fill="#FFF" mask="url(#b)" d="M335.66 498.8l-5.193-1.818 1.112-3.633h-16.324l-3.71 13.03 21.89.778z"/><path d="M335.767 498.687s-6.496 1.468-7.995 7.34l-19.017.378-.47 5.494h54.464v-3.425l-26.982-9.787z" fill="#0C1931" mask="url(#b)"/><path d="M255.967 512.611h-59.959" fill="#FFF" mask="url(#b)"/><path d="M270.057 505.34l-.092 1.218.006.75 14.696-.012v-4.816s-1.278-.047 5.672.715c6.035 1.418 5.302 5.15 5.302 5.15l-10.974 5.228h-17.688l1.569-8.233h1.51z" fill="#0C1931" mask="url(#b)"/><path fill="#FFF" mask="url(#b)" d="M296.394 507.25v2.953l-11.745 6.68h-18.424v-4.233h18.064zM284.966 496.913l-.093 10.244h-14.84v-10.244z"/><path d="M364.27 164.868s3.391.035 5.936-3.997l2.878 3.446s-2.287 3.621-6.85 4.63l-1.964-4.079z" fill="#0C1931" mask="url(#b)"/><path d="M329.786 492.985c3.346-14.447 7.833-28.614 11.574-43.02 2.392-9.214 4.77-18.106 6.41-27.482.39-2.222 2.101-6.342 1.326-8.738-.483-1.492-2.416-1.79-2.573-3.631 1.229-.322 2.692-.332 4.01-.776.296-2.14-2.015-2.568-2.898-4.214.724-.537 2.19-.394 2.557-1.163 1.299-2.725-23.56-102.693-23.56-102.693M314.925 319.843l-30.052-2.18M290.253 318.57l2.325 83.208-8.262 95.135" stroke="#0C1931" stroke-width="6" mask="url(#b)"/><path fill="#0C1931" mask="url(#b)" d="M351.114 169.952l-15.598-.24 14.618-4.803z"/><path fill="#FFF" mask="url(#b)" d="M306.53 516.89h59.958v-5.005H306.53z"/><path d="M369.31 176.695c-5.796-6.622-15.014-6.74-18.032-6.743l-1.64-7.224-41.36-.592-3.45 6.729-17.88-.233c-2.955 0-5.685.487-8.163 1.387-.434.158-.858.332-1.276.515l-39.67 14.138.01.187-.66.776c.38 21.383 12.623 26.834 12.623 26.834l-1.603-.203 19.016-3.656-.07.32.466-.095s2.804 37.097 2.764 37.098l-16.205 40.284 100.222 21.818.407-27.942 1.017-57.576 12.832 15.199c14.163-4.899 21-17.473 24.394-28.605-.44-.242-23.402-32.027-23.743-32.416" fill="#FFCF0B" mask="url(#b)"/><path fill="#0C1931" mask="url(#b)" d="M356.293 222.633l-14.449-14.404 13.622 32.646zM267.806 207.985l2.04-8.597-19.663 13.08zM254.56 294.655l66.547 6.745-64.169-15.169s-2.174 3.767-2.379 8.424"/><path fill="#6A7F83" mask="url(#b)" d="M68.898 496.427h33.261l11.181-47.905H57.718z"/><path d="M110.422 461.024s-25.347-11.04-49.787 0l-1.32-5.658h52.428l-1.32 5.658z" fill="#0C1931" mask="url(#b)"/></g><g transform="translate(50.593 357.11)"><mask id="d" fill="#fff"><use xlink:href="#c"/></mask><path d="M160.715-1.568L147.87 331.324" stroke="#323F51" stroke-width="1.5" mask="url(#d)"/></g><g transform="translate(50.593 357.11)"><mask id="f" fill="#fff"><use xlink:href="#e"/></mask><path d="M158.93-1.88l-12.846 332.893" stroke="#323F51" stroke-width="1.5" mask="url(#f)"/></g><g transform="translate(50.593 357.11)"><mask id="h" fill="#fff"><use xlink:href="#g"/></mask><path d="M157.143-2.191L144.298 330.7" stroke="#323F51" stroke-width="1.5" mask="url(#h)"/></g><g transform="translate(50.593 357.11)"><mask id="j" fill="#fff"><use xlink:href="#i"/></mask><path d="M155.357-2.503L142.512 330.39" stroke="#323F51" stroke-width="1.5" mask="url(#j)"/></g><g transform="translate(50.593 357.11)"><mask id="l" fill="#fff"><use xlink:href="#k"/></mask><path d="M153.571-2.815l-12.844 332.893" stroke="#323F51" stroke-width="1.5" mask="url(#l)"/></g><g transform="translate(50.593 357.11)"><mask id="n" fill="#fff"><use xlink:href="#m"/></mask><path d="M151.785-3.126L138.94 329.766" stroke="#323F51" stroke-width="1.5" mask="url(#n)"/></g><g transform="translate(50.593 357.11)"><mask id="p" fill="#fff"><use xlink:href="#o"/></mask><path d="M150-3.438l-12.845 332.892" stroke="#323F51" stroke-width="1.5" mask="url(#p)"/></g><g transform="translate(50.593 357.11)"><mask id="r" fill="#fff"><use xlink:href="#q"/></mask><path d="M148.214-3.75l-12.845 332.893" stroke="#323F51" stroke-width="1.5" mask="url(#r)"/></g><g transform="translate(50.593 357.11)"><mask id="t" fill="#fff"><use xlink:href="#s"/></mask><path d="M146.428-4.061L133.583 328.83" stroke="#323F51" stroke-width="1.5" mask="url(#t)"/></g><g transform="translate(50.593 357.11)"><mask id="v" fill="#fff"><use xlink:href="#u"/></mask><path d="M144.642-4.373L131.797 328.52" stroke="#323F51" stroke-width="1.5" mask="url(#v)"/></g><g transform="translate(50.593 357.11)"><mask id="x" fill="#fff"><use xlink:href="#w"/></mask><path d="M142.856-4.685l-12.845 332.893" stroke="#323F51" stroke-width="1.5" mask="url(#x)"/></g><g transform="translate(50.593 357.11)"><mask id="z" fill="#fff"><use xlink:href="#y"/></mask><path d="M141.07-4.996l-12.845 332.892" stroke="#323F51" stroke-width="1.5" mask="url(#z)"/></g><g transform="translate(50.593 357.11)"><mask id="B" fill="#fff"><use xlink:href="#A"/></mask><path d="M139.284-5.308L126.44 327.584" stroke="#323F51" stroke-width="1.5" mask="url(#B)"/></g><g transform="translate(50.593 357.11)"><mask id="D" fill="#fff"><use xlink:href="#C"/></mask><path d="M137.498-5.62l-12.844 332.893" stroke="#323F51" stroke-width="1.5" mask="url(#D)"/></g><g transform="translate(50.593 357.11)"><mask id="F" fill="#fff"><use xlink:href="#E"/></mask><path d="M135.713-5.931L122.868 326.96" stroke="#323F51" stroke-width="1.5" mask="url(#F)"/></g><g transform="translate(50.593 357.11)"><mask id="H" fill="#fff"><use xlink:href="#G"/></mask><path d="M133.927-6.243L121.082 326.65" stroke="#323F51" stroke-width="1.5" mask="url(#H)"/></g><g transform="translate(50.593 357.11)"><mask id="J" fill="#fff"><use xlink:href="#I"/></mask><path d="M132.14-6.555l-12.844 332.893" stroke="#323F51" stroke-width="1.5" mask="url(#J)"/></g><g transform="translate(50.593 357.11)"><mask id="L" fill="#fff"><use xlink:href="#K"/></mask><path d="M130.355-6.866L117.51 326.026" stroke="#323F51" stroke-width="1.5" mask="url(#L)"/></g><g transform="translate(50.593 357.11)"><mask id="N" fill="#fff"><use xlink:href="#M"/></mask><path d="M128.569-7.178l-12.845 332.892" stroke="#323F51" stroke-width="1.5" mask="url(#N)"/></g><g transform="translate(50.593 357.11)"><mask id="P" fill="#fff"><use xlink:href="#O"/></mask><path d="M126.783-7.49l-12.845 332.892" stroke="#323F51" stroke-width="1.5" mask="url(#P)"/></g><g transform="translate(50.593 357.11)"><mask id="R" fill="#fff"><use xlink:href="#Q"/></mask><path d="M124.997-7.801L112.152 325.09" stroke="#323F51" stroke-width="1.5" mask="url(#R)"/></g><g transform="translate(50.593 357.11)"><mask id="T" fill="#fff"><use xlink:href="#S"/></mask><path d="M123.211-8.113L110.366 324.78" stroke="#323F51" stroke-width="1.5" mask="url(#T)"/></g><g transform="translate(50.593 357.11)"><mask id="V" fill="#fff"><use xlink:href="#U"/></mask><path d="M121.425-8.425l-12.844 332.892" stroke="#323F51" stroke-width="1.5" mask="url(#V)"/></g><g transform="translate(50.593 357.11)"><mask id="X" fill="#fff"><use xlink:href="#W"/></mask><path d="M119.64-8.736l-12.845 332.892" stroke="#323F51" stroke-width="1.5" mask="url(#X)"/></g><g transform="translate(50.593 357.11)"><mask id="Z" fill="#fff"><use xlink:href="#Y"/></mask><path d="M117.854-9.048l-12.845 332.892" stroke="#323F51" stroke-width="1.5" mask="url(#Z)"/></g><g transform="translate(50.593 357.11)"><mask id="ab" fill="#fff"><use xlink:href="#aa"/></mask><path d="M116.068-9.36l-12.845 332.892" stroke="#323F51" stroke-width="1.5" mask="url(#ab)"/></g><g transform="translate(50.593 357.11)"><mask id="ad" fill="#fff"><use xlink:href="#ac"/></mask><path d="M114.282-9.671L101.437 323.22" stroke="#323F51" stroke-width="1.5" mask="url(#ad)"/></g><g transform="translate(50.593 357.11)"><mask id="af" fill="#fff"><use xlink:href="#ae"/></mask><path d="M112.496-9.983L99.65 322.909" stroke="#323F51" stroke-width="1.5" mask="url(#af)"/></g><g transform="translate(50.593 357.11)"><mask id="ah" fill="#fff"><use xlink:href="#ag"/></mask><path d="M110.71-10.295L97.865 322.597" stroke="#323F51" stroke-width="1.5" mask="url(#ah)"/></g><g transform="translate(50.593 357.11)"><mask id="aj" fill="#fff"><use xlink:href="#ai"/></mask><path d="M108.924-10.606L96.08 322.286" stroke="#323F51" stroke-width="1.5" mask="url(#aj)"/></g><g transform="translate(50.593 357.11)"><mask id="al" fill="#fff"><use xlink:href="#ak"/></mask><path d="M107.138-10.918L94.293 321.974" stroke="#323F51" stroke-width="1.5" mask="url(#al)"/></g><g transform="translate(50.593 357.11)"><mask id="an" fill="#fff"><use xlink:href="#am"/></mask><path d="M105.352-11.23L92.507 321.662" stroke="#323F51" stroke-width="1.5" mask="url(#an)"/></g><g transform="translate(50.593 357.11)"><mask id="ap" fill="#fff"><use xlink:href="#ao"/></mask><path d="M103.566-11.541L90.722 321.35" stroke="#323F51" stroke-width="1.5" mask="url(#ap)"/></g><g transform="translate(50.593 357.11)"><mask id="ar" fill="#fff"><use xlink:href="#aq"/></mask><path d="M101.78-11.853L88.937 321.039" stroke="#323F51" stroke-width="1.5" mask="url(#ar)"/></g><g transform="translate(50.593 357.11)"><mask id="at" fill="#fff"><use xlink:href="#as"/></mask><path d="M99.995-12.165L87.15 320.727" stroke="#323F51" stroke-width="1.5" mask="url(#at)"/></g><g transform="translate(50.593 357.11)"><mask id="av" fill="#fff"><use xlink:href="#au"/></mask><path d="M98.209-12.477L85.364 320.415" stroke="#323F51" stroke-width="1.5" mask="url(#av)"/></g><g transform="translate(50.593 357.11)"><mask id="ax" fill="#fff"><use xlink:href="#aw"/></mask><path d="M96.423-12.788L83.578 320.104" stroke="#323F51" stroke-width="1.5" mask="url(#ax)"/></g><g transform="translate(50.593 357.11)"><mask id="az" fill="#fff"><use xlink:href="#ay"/></mask><path d="M94.637-13.1L81.792 319.792" stroke="#323F51" stroke-width="1.5" mask="url(#az)"/></g><g transform="translate(50.593 357.11)"><mask id="aB" fill="#fff"><use xlink:href="#aA"/></mask><path d="M92.851-13.412L80.006 319.48" stroke="#323F51" stroke-width="1.5" mask="url(#aB)"/></g><g transform="translate(50.593 357.11)"><mask id="aD" fill="#fff"><use xlink:href="#aC"/></mask><path d="M91.065-13.723L78.22 319.169" stroke="#323F51" stroke-width="1.5" mask="url(#aD)"/></g><g transform="translate(50.593 357.11)"><mask id="aF" fill="#fff"><use xlink:href="#aE"/></mask><path d="M89.28-14.035L76.434 318.857" stroke="#323F51" stroke-width="1.5" mask="url(#aF)"/></g><g transform="translate(50.593 357.11)"><mask id="aH" fill="#fff"><use xlink:href="#aG"/></mask><path d="M87.493-14.347L74.65 318.545" stroke="#323F51" stroke-width="1.5" mask="url(#aH)"/></g><g transform="translate(50.593 357.11)"><mask id="aJ" fill="#fff"><use xlink:href="#aI"/></mask><path d="M85.708-14.659L72.863 318.234" stroke="#323F51" stroke-width="1.5" mask="url(#aJ)"/></g><g transform="translate(50.593 357.11)"><mask id="aL" fill="#fff"><use xlink:href="#aK"/></mask><path d="M83.922-14.97L71.077 317.922" stroke="#323F51" stroke-width="1.5" mask="url(#aL)"/></g><g transform="translate(50.593 357.11)"><mask id="aN" fill="#fff"><use xlink:href="#aM"/></mask><path d="M82.136-15.282L69.29 317.61" stroke="#323F51" stroke-width="1.5" mask="url(#aN)"/></g><g transform="translate(50.593 357.11)"><mask id="aP" fill="#fff"><use xlink:href="#aO"/></mask><path d="M80.35-15.594L67.505 317.3" stroke="#323F51" stroke-width="1.5" mask="url(#aP)"/></g><g transform="translate(50.593 357.11)"><mask id="aR" fill="#fff"><use xlink:href="#aQ"/></mask><path d="M78.564-15.905L65.719 316.987" stroke="#323F51" stroke-width="1.5" mask="url(#aR)"/></g><g transform="translate(50.593 357.11)"><mask id="aT" fill="#fff"><use xlink:href="#aS"/></mask><path d="M76.778-16.217L63.933 316.675" stroke="#323F51" stroke-width="1.5" mask="url(#aT)"/></g><g transform="translate(50.593 357.11)"><mask id="aV" fill="#fff"><use xlink:href="#aU"/></mask><path d="M74.992-16.529L62.148 316.364" stroke="#323F51" stroke-width="1.5" mask="url(#aV)"/></g><g transform="translate(50.593 357.11)"><mask id="aX" fill="#fff"><use xlink:href="#aW"/></mask><path d="M73.206-16.84L60.362 316.052" stroke="#323F51" stroke-width="1.5" mask="url(#aX)"/></g><g transform="translate(50.593 357.11)"><mask id="aZ" fill="#fff"><use xlink:href="#aY"/></mask><path d="M71.42-17.152L58.576 315.74" stroke="#323F51" stroke-width="1.5" mask="url(#aZ)"/></g><g transform="translate(50.593 357.11)"><mask id="bb" fill="#fff"><use xlink:href="#ba"/></mask><path d="M69.634-17.464L56.79 315.43" stroke="#323F51" stroke-width="1.5" mask="url(#bb)"/></g><g transform="translate(50.593 357.11)"><mask id="bd" fill="#fff"><use xlink:href="#bc"/></mask><path d="M67.849-17.775L55.004 315.117" stroke="#323F51" stroke-width="1.5" mask="url(#bd)"/></g><g transform="translate(50.593 357.11)"><mask id="bf" fill="#fff"><use xlink:href="#be"/></mask><path d="M66.063-18.087L53.218 314.805" stroke="#323F51" stroke-width="1.5" mask="url(#bf)"/></g><g transform="translate(50.593 357.11)"><mask id="bh" fill="#fff"><use xlink:href="#bg"/></mask><path d="M64.277-18.399L51.432 314.494" stroke="#323F51" stroke-width="1.5" mask="url(#bh)"/></g><g transform="translate(50.593 357.11)"><mask id="bj" fill="#fff"><use xlink:href="#bi"/></mask><path d="M62.49-18.71L49.647 314.182" stroke="#323F51" stroke-width="1.5" mask="url(#bj)"/></g><g transform="translate(50.593 357.11)"><mask id="bl" fill="#fff"><use xlink:href="#bk"/></mask><path d="M60.705-19.022L47.86 313.87" stroke="#323F51" stroke-width="1.5" mask="url(#bl)"/></g><g transform="translate(50.593 357.11)"><mask id="bn" fill="#fff"><use xlink:href="#bm"/></mask><path d="M58.92-19.334L46.074 313.56" stroke="#323F51" stroke-width="1.5" mask="url(#bn)"/></g><g transform="translate(50.593 357.11)"><mask id="bp" fill="#fff"><use xlink:href="#bo"/></mask><path d="M57.133-19.645L44.29 313.247" stroke="#323F51" stroke-width="1.5" mask="url(#bp)"/></g><g transform="translate(50.593 357.11)"><mask id="br" fill="#fff"><use xlink:href="#bq"/></mask><path d="M55.347-19.957L42.503 312.935" stroke="#323F51" stroke-width="1.5" mask="url(#br)"/></g><g transform="translate(50.593 357.11)"><mask id="bt" fill="#fff"><use xlink:href="#bs"/></mask><path d="M53.561-20.269L40.717 312.624" stroke="#323F51" stroke-width="1.5" mask="url(#bt)"/></g><g transform="translate(50.593 357.11)"><mask id="bv" fill="#fff"><use xlink:href="#bu"/></mask><path d="M51.776-20.58L38.93 312.312" stroke="#323F51" stroke-width="1.5" mask="url(#bv)"/></g><g transform="translate(50.593 357.11)"><mask id="bx" fill="#fff"><use xlink:href="#bw"/></mask><path d="M49.99-20.892L37.145 312" stroke="#323F51" stroke-width="1.5" mask="url(#bx)"/></g><g transform="translate(50.593 357.11)"><mask id="bz" fill="#fff"><use xlink:href="#by"/></mask><path d="M48.204-21.204L35.359 311.69" stroke="#323F51" stroke-width="1.5" mask="url(#bz)"/></g><g transform="translate(50.593 357.11)"><mask id="bB" fill="#fff"><use xlink:href="#bA"/></mask><path d="M46.418-21.515L33.573 311.377" stroke="#323F51" stroke-width="1.5" mask="url(#bB)"/></g><g transform="translate(50.593 357.11)"><mask id="bD" fill="#fff"><use xlink:href="#bC"/></mask><path d="M44.632-21.827L31.787 311.065" stroke="#323F51" stroke-width="1.5" mask="url(#bD)"/></g><g transform="translate(50.593 357.11)"><mask id="bF" fill="#fff"><use xlink:href="#bE"/></mask><path d="M42.846-22.139L30.002 310.754" stroke="#323F51" stroke-width="1.5" mask="url(#bF)"/></g><g transform="translate(50.593 357.11)"><mask id="bH" fill="#fff"><use xlink:href="#bG"/></mask><path d="M41.06-22.45L28.216 310.442" stroke="#323F51" stroke-width="1.5" mask="url(#bH)"/></g><g transform="translate(50.593 357.11)"><mask id="bJ" fill="#fff"><use xlink:href="#bI"/></mask><path d="M39.274-22.762L26.43 310.13" stroke="#323F51" stroke-width="1.5" mask="url(#bJ)"/></g><g transform="translate(50.593 357.11)"><mask id="bL" fill="#fff"><use xlink:href="#bK"/></mask><path d="M37.488-23.074L24.644 309.818" stroke="#323F51" stroke-width="1.5" mask="url(#bL)"/></g><g transform="translate(50.593 357.11)"><mask id="bN" fill="#fff"><use xlink:href="#bM"/></mask><path d="M35.703-23.385L22.858 309.507" stroke="#323F51" stroke-width="1.5" mask="url(#bN)"/></g><g transform="translate(50.593 357.11)"><mask id="bP" fill="#fff"><use xlink:href="#bO"/></mask><path d="M33.917-23.697L21.072 309.195" stroke="#323F51" stroke-width="1.5" mask="url(#bP)"/></g><g transform="translate(50.593 357.11)"><mask id="bR" fill="#fff"><use xlink:href="#bQ"/></mask><path d="M32.13-24.009L19.287 308.883" stroke="#323F51" stroke-width="1.5" mask="url(#bR)"/></g><g transform="translate(50.593 357.11)"><mask id="bT" fill="#fff"><use xlink:href="#bS"/></mask><path d="M30.345-24.32L17.5 308.572" stroke="#323F51" stroke-width="1.5" mask="url(#bT)"/></g><g transform="translate(50.593 357.11)"><mask id="bV" fill="#fff"><use xlink:href="#bU"/></mask><path d="M28.559-24.632L15.714 308.26" stroke="#323F51" stroke-width="1.5" mask="url(#bV)"/></g><g transform="translate(50.593 357.11)"><mask id="bX" fill="#fff"><use xlink:href="#bW"/></mask><path d="M26.773-24.944L13.928 307.948" stroke="#323F51" stroke-width="1.5" mask="url(#bX)"/></g><g transform="translate(50.593 357.11)"><mask id="bZ" fill="#fff"><use xlink:href="#bY"/></mask><path d="M24.987-25.256L12.143 307.636" stroke="#323F51" stroke-width="1.5" mask="url(#bZ)"/></g><g transform="translate(50.593 357.11)"><mask id="cb" fill="#fff"><use xlink:href="#ca"/></mask><path d="M23.201-25.567L10.357 307.325" stroke="#323F51" stroke-width="1.5" mask="url(#cb)"/></g><g transform="translate(50.593 357.11)"><mask id="cd" fill="#fff"><use xlink:href="#cc"/></mask><path d="M21.416-25.879L8.57 307.013" stroke="#323F51" stroke-width="1.5" mask="url(#cd)"/></g><g transform="translate(50.593 357.11)"><mask id="cf" fill="#fff"><use xlink:href="#ce"/></mask><path d="M19.63-26.19L6.785 306.7" stroke="#323F51" stroke-width="1.5" mask="url(#cf)"/></g><g transform="translate(50.593 357.11)"><mask id="ch" fill="#fff"><use xlink:href="#cg"/></mask><path d="M17.844-26.502L4.999 306.39" stroke="#323F51" stroke-width="1.5" mask="url(#ch)"/></g><g transform="translate(50.593 357.11)"><mask id="cj" fill="#fff"><use xlink:href="#ci"/></mask><path d="M16.058-26.814L3.213 306.078" stroke="#323F51" stroke-width="1.5" mask="url(#cj)"/></g><g transform="translate(50.593 357.11)"><mask id="cl" fill="#fff"><use xlink:href="#ck"/></mask><path d="M14.272-27.126L1.427 305.766" stroke="#323F51" stroke-width="1.5" mask="url(#cl)"/></g><g transform="translate(50.593 357.11)"><mask id="cn" fill="#fff"><use xlink:href="#cm"/></mask><path d="M12.486-27.437L-.359 305.455" stroke="#323F51" stroke-width="1.5" mask="url(#cn)"/></g><g transform="translate(50.593 357.11)"><mask id="cp" fill="#fff"><use xlink:href="#co"/></mask><path d="M10.7-27.749L-2.145 305.143" stroke="#323F51" stroke-width="1.5" mask="url(#cp)"/></g><g transform="translate(50.593 357.11)"><mask id="cr" fill="#fff"><use xlink:href="#cq"/></mask><path d="M8.914-28.06L-3.93 304.83" stroke="#323F51" stroke-width="1.5" mask="url(#cr)"/></g><g transform="translate(50.593 357.11)"><mask id="ct" fill="#fff"><use xlink:href="#cs"/></mask><path d="M7.128-28.372L-5.716 304.52" stroke="#323F51" stroke-width="1.5" mask="url(#ct)"/></g><g transform="translate(50.593 357.11)"><mask id="cv" fill="#fff"><use xlink:href="#cu"/></mask><path d="M5.342-28.684L-7.502 304.208" stroke="#323F51" stroke-width="1.5" mask="url(#cv)"/></g><g transform="translate(50.593 357.11)"><mask id="cx" fill="#fff"><use xlink:href="#cw"/></mask><path d="M3.557-28.996L-9.288 303.896" stroke="#323F51" stroke-width="1.5" mask="url(#cx)"/></g><g transform="translate(50.593 357.11)"><mask id="cz" fill="#fff"><use xlink:href="#cy"/></mask><path d="M1.77-29.307l-12.844 332.892" stroke="#323F51" stroke-width="1.5" mask="url(#cz)"/></g><g transform="translate(50.593 357.11)"><mask id="cB" fill="#fff"><use xlink:href="#cA"/></mask><path d="M-.015-29.62L-12.86 303.274" stroke="#323F51" stroke-width="1.5" mask="url(#cB)"/></g><g transform="translate(50.593 357.11)"><mask id="cD" fill="#fff"><use xlink:href="#cC"/></mask><path d="M-1.801-29.93L-14.646 302.96" stroke="#323F51" stroke-width="1.5" mask="url(#cD)"/></g><g transform="translate(50.593 357.11)"><mask id="cF" fill="#fff"><use xlink:href="#cE"/></mask><path d="M-3.587-30.242L-16.432 302.65" stroke="#323F51" stroke-width="1.5" mask="url(#cF)"/></g><g transform="translate(50.593 357.11)"><mask id="cH" fill="#fff"><use xlink:href="#cG"/></mask><path d="M-5.373-30.554l-12.844 332.892" stroke="#323F51" stroke-width="1.5" mask="url(#cH)"/></g><g transform="translate(50.593 357.11)"><mask id="cJ" fill="#fff"><use xlink:href="#cI"/></mask><path d="M-7.159-30.866l-12.844 332.892" stroke="#323F51" stroke-width="1.5" mask="url(#cJ)"/></g><g transform="translate(50.593 357.11)"><mask id="cL" fill="#fff"><use xlink:href="#cK"/></mask><path d="M-8.945-31.177l-12.844 332.892" stroke="#323F51" stroke-width="1.5" mask="url(#cL)"/></g><g transform="translate(50.593 357.11)"><mask id="cN" fill="#fff"><use xlink:href="#cM"/></mask><path d="M-10.73-31.49l-12.845 332.893" stroke="#323F51" stroke-width="1.5" mask="url(#cN)"/></g><g transform="translate(50.593 357.11)"><mask id="cP" fill="#fff"><use xlink:href="#cO"/></mask><path d="M-12.516-31.8L-25.361 301.09" stroke="#323F51" stroke-width="1.5" mask="url(#cP)"/></g><g transform="translate(50.593 357.11)"><mask id="cR" fill="#fff"><use xlink:href="#cQ"/></mask><path d="M-14.302-32.112L-27.147 300.78" stroke="#323F51" stroke-width="1.5" mask="url(#cR)"/></g><g transform="translate(50.593 357.11)"><mask id="cT" fill="#fff"><use xlink:href="#cS"/></mask><path d="M-16.088-32.424l-12.845 332.892" stroke="#323F51" stroke-width="1.5" mask="url(#cT)"/></g><g transform="translate(50.593 357.11)"><mask id="cV" fill="#fff"><use xlink:href="#cU"/></mask><path d="M-17.874-32.736L-30.72 300.156" stroke="#323F51" stroke-width="1.5" mask="url(#cV)"/></g><g transform="translate(50.593 357.11)"><mask id="cX" fill="#fff"><use xlink:href="#cW"/></mask><path d="M-19.66-33.047l-12.845 332.892" stroke="#323F51" stroke-width="1.5" mask="url(#cX)"/></g><g transform="translate(50.593 357.11)"><mask id="cZ" fill="#fff"><use xlink:href="#cY"/></mask><path d="M-21.446-33.36L-34.29 299.534" stroke="#323F51" stroke-width="1.5" mask="url(#cZ)"/></g><g transform="translate(50.593 357.11)"><mask id="db" fill="#fff"><use xlink:href="#da"/></mask><path d="M-23.232-33.67L-36.076 299.22" stroke="#323F51" stroke-width="1.5" mask="url(#db)"/></g><g transform="translate(50.593 357.11)"><mask id="dd" fill="#fff"><use xlink:href="#dc"/></mask><path d="M-25.018-33.982L-37.862 298.91" stroke="#323F51" stroke-width="1.5" mask="url(#dd)"/></g><g transform="translate(50.593 357.11)"><mask id="df" fill="#fff"><use xlink:href="#de"/></mask><path d="M-26.804-34.294l-12.844 332.892" stroke="#323F51" stroke-width="1.5" mask="url(#df)"/></g><g transform="translate(50.593 357.11)"><mask id="dh" fill="#fff"><use xlink:href="#dg"/></mask><path d="M-28.59-34.606l-12.844 332.892" stroke="#323F51" stroke-width="1.5" mask="url(#dh)"/></g><g transform="translate(50.593 357.11)"><mask id="dj" fill="#fff"><use xlink:href="#di"/></mask><path d="M-30.375-34.917L-43.22 297.975" stroke="#323F51" stroke-width="1.5" mask="url(#dj)"/></g><g transform="translate(50.593 357.11)"><mask id="dl" fill="#fff"><use xlink:href="#dk"/></mask><path d="M-32.161-35.23l-12.845 332.893" stroke="#323F51" stroke-width="1.5" mask="url(#dl)"/></g><g transform="translate(50.593 357.11)"><mask id="dn" fill="#fff"><use xlink:href="#dm"/></mask><path d="M-33.947-35.54L-46.792 297.35" stroke="#323F51" stroke-width="1.5" mask="url(#dn)"/></g><g transform="translate(50.593 357.11)"><mask id="dp" fill="#fff"><use xlink:href="#do"/></mask><path d="M-35.733-35.852l-12.845 332.891" stroke="#323F51" stroke-width="1.5" mask="url(#dp)"/></g><g transform="translate(50.593 357.11)"><mask id="dr" fill="#fff"><use xlink:href="#dq"/></mask><path d="M-37.519-36.164l-12.845 332.892" stroke="#323F51" stroke-width="1.5" mask="url(#dr)"/></g><g transform="translate(50.593 357.11)"><mask id="dt" fill="#fff"><use xlink:href="#ds"/></mask><path d="M-39.305-36.476l-12.844 332.892" stroke="#323F51" stroke-width="1.5" mask="url(#dt)"/></g><g transform="translate(50.593 357.11)"><mask id="dv" fill="#fff"><use xlink:href="#du"/></mask><path d="M-41.09-36.788l-12.845 332.892" stroke="#323F51" stroke-width="1.5" mask="url(#dv)"/></g><g transform="translate(50.593 357.11)"><mask id="dx" fill="#fff"><use xlink:href="#dw"/></mask><path d="M-42.877-37.1L-55.72 295.794" stroke="#323F51" stroke-width="1.5" mask="url(#dx)"/></g><g transform="translate(50.593 357.11)"><mask id="dz" fill="#fff"><use xlink:href="#dy"/></mask><path d="M-44.662-37.411l-12.845 332.892" stroke="#323F51" stroke-width="1.5" mask="url(#dz)"/></g><g transform="translate(50.593 357.11)"><mask id="dB" fill="#fff"><use xlink:href="#dA"/></mask><path d="M-46.448-37.723L-59.293 295.17" stroke="#323F51" stroke-width="1.5" mask="url(#dB)"/></g><g transform="translate(50.593 357.11)"><mask id="dD" fill="#fff"><use xlink:href="#dC"/></mask><path d="M-48.234-38.034L-61.08 294.857" stroke="#323F51" stroke-width="1.5" mask="url(#dD)"/></g><g fill="#1F191A"><path d="M428.809 58.751c1.075-.004 1.473-.43 1.474-1.49.004-4.06.004-8.121 0-12.183 0-1.142-.36-1.5-1.524-1.503-2.12-.007-4.24-.002-6.36-.002s-4.24-.006-6.359.003c-1.11.004-1.471.366-1.472 1.464-.005 4.09-.005 8.18 0 12.27.001 1.001.413 1.437 1.433 1.441 4.27.014 8.539.014 12.808 0M442.252 70.014c-1.026-.003-2.051-.04-3.077-.062-.42-1.072-.925-2.12-1.231-3.222-.26-.93-.656-2.072-.323-2.845.382-.889.382-1.701.407-2.561.038-1.267-.215-1.484-1.544-1.485-4.976-.002-9.952.02-14.928-.008-2.808-.016-2.574.097-2.583 2.49-.003.735.032 1.388.944 1.576-1.178 2.786-2.085 5.534-2.333 8.503h3.619c-.425-3.104.606-5.61 3.201-7.311 2.632-1.725 5.478-1.76 8.136-.058 2.648 1.695 3.68 4.226 3.26 7.359h16.852v-2.373c-3.513 0-6.957.004-10.4-.003M466.541 65.864c-1.43-2.289-3.501-3.6-6.242-3.807-.873-.066-1.396-.3-1.708-1.202-.812-2.338-2.45-4.044-4.708-5.12-.791-.377-1.136-.918-1.25-1.738h1.613c.361.999.949 1.827 2.016 2.233 1.235.47 2.108.096 2.26-1.172.145-1.207.13-2.457-.012-3.666-.133-1.131-.958-1.5-2.078-1.139-1.155.374-1.784 1.24-2.188 2.281h-2.123c-.506-.764-.356-1.848-1.393-2.384-.305 2.866-2.525 2.242-4.52 2.266.722 1.097 1.154.83 3.131.299a.52.52 0 0 1 .627.322l4.607 13.094c.211-.171.368-.294.52-.423 1.791-1.532 3.872-2.117 6.21-1.75 1.947.305 3.486 1.293 4.689 2.816.138.174.454.213.687.315.04-.257.12-.517.107-.773-.008-.154-.153-.305-.245-.452"/><path d="M460.09 73.697c-1.28-.007-2.366-1.035-2.376-2.25-.012-1.255 1.108-2.356 2.381-2.345 1.298.012 2.372 1.093 2.35 2.365-.022 1.294-1.018 2.238-2.355 2.23m.15-8.162c-3.389-.045-6.123 2.589-6.13 5.904-.008 3.173 2.63 5.808 5.835 5.831 3.447.025 6.087-2.472 6.113-5.782.026-3.227-2.597-5.91-5.818-5.953M428.697 73.691c-1.324.002-2.333-.961-2.342-2.235a2.324 2.324 0 0 1 2.336-2.354c1.299.008 2.359 1.067 2.353 2.35-.005 1.261-1.03 2.238-2.347 2.24m.13-8.1c-3.434-.037-6.14 2.551-6.13 5.865.009 3.174 2.704 5.81 5.945 5.814 3.368.003 6.06-2.603 6.057-5.867-.001-3.137-2.668-5.775-5.871-5.811M438.738 36.754a.701.701 0 0 1 .747.05l.524.374c.565.403 1.201.666 1.866.773l.716.116-.004.028.776.099c.331 1.392.214 2.98.145 3.619l-.376-.097-.024.088-1.491-.399c-.849-.227-1.589-.798-2.073-1.598l-1.107-1.831c-.257-.424-.114-1 .301-1.222zm-4.547 5.032l8.653 2.374s.454-.935.745-1.79l.364.094.044-.286c.015-.096.35-2.365-.164-4.285l-.046-.169-.287-.036c-.807-2.614-2.762-4.509-4.988-4.509-3.794 0-5.322 3.49-4.88 6.778l.559 1.83zM435.864 58.227c2.399.439 4.757.78 7.37 1.15.855.121 1.34.492 1.626 1.24.775 2.037 1.63 4.184 2.615 6.565.52 1.257 1.598 1.778 2.745 1.327a2.017 2.017 0 0 0 1.108-1.08c.16-.373.283-.973-.034-1.712-1.033-2.41-2.012-4.887-2.958-7.281l-.455-1.152c-.366-.923-1.008-1.402-2.08-1.552-1.443-.2-2.862-.42-4.364-.653-.64-.099-1.288-.2-1.949-.3l-.917-.258.624-5.636 1.07.786c1.969 1.444 4.366 2.241 7.124 2.37h.015l.29.003c.1.002.202.004.305.004.138 0 .252-.004.36-.01 1.035-.072 1.74-.777 1.713-1.715-.027-.939-.757-1.577-1.815-1.59-.15-.001-.3 0-.451.001-.39.004-.758.007-1.131-.037-2.64-.315-4.705-1.502-6.315-3.63l-.574-.758-5.598-1.473c-.54 2.082-2.021 9.424-2.015 12.086.004 1.745 1.246 2.857 3.69 3.305"/></g></g></svg>